{"title":"Screw My Wife Please - Lauren 3D(Anaglyph) DVDRip","uid":6259566,"size":367091712,"categoryP":"porn","categoryS":"movie_clips","magnet":"?xt=urn:btih:6d2d5cb7325e4955b266b392e71ffb5c8434c6b7&amp;dn=Screw+My+Wife+Please+-+Lauren+3D%28Anaglyph%29+DVDRip+&amp;tr=udp%3A%2F%2Ftracker.openbittorrent.com%3A80&amp;tr=udp%3A%2F%2Fopen.demonii.com%3A1337&amp;tr=udp%3A%2F%2Ftracker.coppersurfer.tk%3A6969&amp;tr=udp%3A%2F%2Fexodus.desync.com%3A6969","seeders":1,"leechers":0,"uploader":null,"files":1,"time":1300701481,"description":"Required red green glasses to view this video\n\nSCREENSHOTS:\n &lt;a href=&quot;\nhttp://lnk.co/GXQSR&quot; rel=&quot;nofollow&quot; target=&quot;_NEW&quot;&gt;\nhttp://lnk.co/GXQSR&lt;/a&gt;\n\nVideo\nID                               : 0\nFormat                           : MPEG-4 Visual\nFormat profile                   : Advanced Simple@L5\nFormat settings, BVOP            : 1\nFormat settings, QPel            : No\nFormat settings, GMC             : No warppoints\nFormat settings, Matrix          : Custom\nCodec ID                         : XVID\nCodec ID/Hint                    : XviD\nDuration                         : 14mn 17s\nBit rate                         : 3 223 Kbps\nWidth                            : 720 pixels\nHeight                           : 416 pixels\nDisplay aspect ratio             : 16:9\nFrame rate                       : 29.970 fps\nColor space                      : YUV\nChroma subsampling               : 4:2:0\nBit depth                        : 8 bits\nScan type                        : Progressive\nCompression mode                 : Lossy\nBits/(Pixel*Frame)               : 0.359\nStream size                      : 330 MiB (94%)\n\nAudio\nID                               : 1\nFormat                           : AC-3\nFormat/Info                      : Audio Coding 3\nMode extension                   : CM (complete main)\nCodec ID                         : 2000\nDuration                         : 14mn 17s\nBit rate mode                    : Constant\nBit rate                         : 192 Kbps\nChannel(s)                       : 2 channels\nChannel positions                : Front: L R\nSampling rate                    : 48.0 KHz\nBit depth                        : 16 bits\nCompression mode                 : Lossy\nStream size                      : 19.6 MiB (6%)\nLanguage                         : English","torrent":{"xt":"urn:btih:6d2d5cb7325e4955b266b392e71ffb5c8434c6b7","amp;dn":"Screw+My+Wife+Please+-+Lauren+3D%28Anaglyph%29+DVDRip+","amp;tr":["udp%3A%2F%2Ftracker.openbittorrent.com%3A80","udp%3A%2F%2Fopen.demonii.com%3A1337","udp%3A%2F%2Ftracker.coppersurfer.tk%3A6969","udp%3A%2F%2Fexodus.desync.com%3A6969"],"infoHash":"6d2d5cb7325e4955b266b392e71ffb5c8434c6b7","infoHashBuffer":{"type":"Buffer","data":[109,45,92,183,50,94,73,85,178,102,179,146,231,31,251,92,132,52,198,183]},"announce":[],"urlList":[]}}